<?xml version="1.0" encoding="utf-8"?>
<svg viewBox="27.732 79.695 764.972 726.197" xmlns="http://www.w3.org/2000/svg" xmlns:bx="https://boxy-svg.com">
  <path d="M 293.698 325.069 Q 380.205 173.577 470.602 325.069 L 591.133 527.058 Q 681.531 678.55 504.627 678.55 L 268.755 678.55 Q 91.851 678.55 178.357 527.058 Z" style="stroke: rgb(254, 242, 0); paint-order: fill; stroke-width: 6px; fill: none; stroke-miterlimit: 15.5; transform-origin: 385.826px 463.936px;" transform="matrix(0.829036951065, -0.559193015099, 0.559193015099, 0.829036951065, -139.157149778834, 46.555749520159)" bx:shape="triangle 91.851 173.577 589.68 504.973 0.489 0.3 1@63790bdb"/>
  <path style="paint-order: stroke; stroke: rgb(255, 229, 0); fill: none; stroke-width: 6px; stroke-dashoffset: -1px; stroke-linecap: round; stroke-miterlimit: 8.79; transform-origin: 338.346px 532.351px;" d="M 198.663 310.819 H 501.696 A 61 61 0 0 1 562.696 371.819 V 669.218 A 84.666 84.666 0 0 1 478.03 753.884 H 198.663 A 84.666 84.666 0 0 1 113.997 669.218 V 395.485 A 84.666 84.666 0 0 1 198.663 310.819 Z" transform="matrix(0.97814810276, 0.207911998034, -0.207911998034, 0.97814810276, 163.768208845907, -179.425940629631)" bx:shape="rect 113.997 310.819 448.699 443.065 84.666 61 84.666 84.666 1@26d4b135"/>
</svg>