<?xml version="1.0" encoding="utf-8"?>
<svg viewBox="-68.296 -15.045 610.102 672.561" xmlns="http://www.w3.org/2000/svg" xmlns:bx="https://boxy-svg.com">
  <path d="M 504.36 98.052 Q 570.047 -20.462 641.207 98.052 L 795.389 354.832 Q 866.55 473.346 729.702 473.346 L 433.199 473.346 Q 296.351 473.346 362.038 354.832 Z" style="fill: none; stroke: rgb(255, 234, 0); stroke-width: 6px; transform-origin: 580.234px 256.07px;" transform="matrix(0.258803993464, 0.965929985046, -0.965929985046, 0.258803993464, -313.461035678537, 53.969211074686)" bx:shape="triangle 296.351 -20.462 570.199 493.808 0.48 0.24 1@f178db62"/>
  <path style="fill: none; stroke: rgb(255, 229, 0); stroke-width: 6px; transform-origin: 320.685px 460.363px;" d="M 196.375 282.658 H 450.996 A 53 53 0 0 1 503.996 335.658 V 579.067 A 59 59 0 0 1 444.996 638.067 H 200.375 A 63 63 0 0 1 137.375 575.067 V 341.658 A 59 59 0 0 1 196.375 282.658 Z" transform="matrix(0.46947106719, 0.882947802544, -0.882947802544, 0.46947106719, -181.628942066438, 139.024109030491)" bx:shape="rect 137.375 282.658 366.621 355.409 59 53 59 63 1@a968ed7b"/>
</svg>