<svg xmlns="http://www.w3.org/2000/svg" version="1.1" xmlns:xlink="http://www.w3.org/1999/xlink" xmlns:svgjs="http://svgjs.dev/svgjs" viewBox="0 0 800 800"><g shape-rendering="crispEdges"><g transform="translate(-75 -150)"><use xlink:href="#SvgjsSymbol1012" x="337.5" y="450" fill="hsl(30, 100%, 51%)"></use><use xlink:href="#SvgjsSymbol1013" x="337.5" y="450" fill="#ffb345"></use><use xlink:href="#SvgjsSymbol1014" x="337.5" y="450" fill="#c55300"></use></g><g transform="translate(-75 -150)"><use xlink:href="#SvgjsSymbol1018" x="450" y="525" fill="hsl(30, 100%, 51%)"></use><use xlink:href="#SvgjsSymbol1019" x="450" y="525" fill="#ffb345"></use><use xlink:href="#SvgjsSymbol1020" x="450" y="525" fill="#c55300"></use></g><g transform="translate(-75 -150)"><use xlink:href="#SvgjsSymbol1018" x="450" y="450" fill="hsl(30, 100%, 51%)"></use><use xlink:href="#SvgjsSymbol1019" x="450" y="450" fill="#ffb345"></use><use xlink:href="#SvgjsSymbol1020" x="450" y="450" fill="#c55300"></use></g><g transform="translate(-75 -150)"><use xlink:href="#SvgjsSymbol1021" x="393.75" y="412.5" fill="hsl(30, 100%, 51%)"></use><use xlink:href="#SvgjsSymbol1022" x="393.75" y="412.5" fill="#ffb345"></use><use xlink:href="#SvgjsSymbol1023" x="393.75" y="412.5" fill="#c55300"></use></g><g transform="translate(-75 -150)"><use xlink:href="#SvgjsSymbol1024" x="475" y="412.5" fill="hsl(30, 100%, 51%)"></use><use xlink:href="#SvgjsSymbol1025" x="475" y="412.5" fill="#ffb345"></use><use xlink:href="#SvgjsSymbol1026" x="475" y="412.5" fill="#c55300"></use></g><g><use xlink:href="#SvgjsSymbol1024" x="450" y="362.5" fill="hsl(30, 100%, 51%)"></use><use xlink:href="#SvgjsSymbol1025" x="450" y="362.5" fill="#ffb345"></use><use xlink:href="#SvgjsSymbol1026" x="450" y="362.5" fill="#c55300"></use></g><g><use xlink:href="#SvgjsSymbol1030" x="262.5" y="412.5" fill="hsl(30, 100%, 51%)"></use><use xlink:href="#SvgjsSymbol1031" x="262.5" y="412.5" fill="#ffb345"></use><use xlink:href="#SvgjsSymbol1032" x="262.5" y="412.5" fill="#c55300"></use></g><g><use xlink:href="#SvgjsSymbol1033" x="362.5" y="456.25" fill="hsl(30, 100%, 51%)"></use><use xlink:href="#SvgjsSymbol1034" x="362.5" y="456.25" fill="#ffb345"></use><use xlink:href="#SvgjsSymbol1035" x="362.5" y="456.25" fill="#c55300"></use></g><g><use xlink:href="#SvgjsSymbol1033" x="375" y="250" fill="hsl(30, 100%, 51%)"></use><use xlink:href="#SvgjsSymbol1034" x="375" y="250" fill="#ffb345"></use><use xlink:href="#SvgjsSymbol1035" x="375" y="250" fill="#c55300"></use></g></g><symbol id="SvgjsSymbol1000"><polygon points="0,12.5 25,0 50,12.5 25,25"></polygon></symbol><symbol id="SvgjsSymbol1001"><polygon points="0,12.5 25,25 25,50 0,37.5"></polygon></symbol><symbol id="SvgjsSymbol1002"><polygon points="25,25 50,12.5 50,37.5 25,50"></polygon></symbol><g></g><symbol id="SvgjsSymbol1003"><polygon points="0,18.75 37.5,0 75,18.75 37.5,37.5"></polygon></symbol><symbol id="SvgjsSymbol1004"><polygon points="0,18.75 37.5,37.5 37.5,75 0,56.25"></polygon></symbol><symbol id="SvgjsSymbol1005"><polygon points="37.5,37.5 75,18.75 75,56.25 37.5,75"></polygon></symbol><symbol id="SvgjsSymbol1006"><polygon points="0,25 50,0 100,25 50,50"></polygon></symbol><symbol id="SvgjsSymbol1007"><polygon points="0,25 50,50 50,100 0,75"></polygon></symbol><symbol id="SvgjsSymbol1008"><polygon points="50,50 100,25 100,75 50,100"></polygon></symbol><symbol id="SvgjsSymbol1009"><polygon points="0,31.25 62.5,0 125,31.25 62.5,62.5"></polygon></symbol><symbol id="SvgjsSymbol1010"><polygon points="0,31.25 62.5,62.5 62.5,125 0,93.75"></polygon></symbol><symbol id="SvgjsSymbol1011"><polygon points="62.5,62.5 125,31.25 125,93.75 62.5,125"></polygon></symbol><symbol id="SvgjsSymbol1012"><polygon points="0,37.5 75,0 150,37.5 75,75"></polygon></symbol><symbol id="SvgjsSymbol1013"><polygon points="0,37.5 75,75 75,150 0,112.5"></polygon></symbol><symbol id="SvgjsSymbol1014"><polygon points="75,75 150,37.5 150,112.5 75,150"></polygon></symbol><symbol id="SvgjsSymbol1015"><polygon points="0,31.25 62.5,0 125,31.25 62.5,62.5"></polygon></symbol><symbol id="SvgjsSymbol1016"><polygon points="0,31.25 62.5,62.5 62.5,125 0,93.75"></polygon></symbol><symbol id="SvgjsSymbol1017"><polygon points="62.5,62.5 125,31.25 125,93.75 62.5,125"></polygon></symbol><symbol id="SvgjsSymbol1018"><polygon points="0,25 50,0 100,25 50,50"></polygon></symbol><symbol id="SvgjsSymbol1019"><polygon points="0,25 50,50 50,100 0,75"></polygon></symbol><symbol id="SvgjsSymbol1020"><polygon points="50,50 100,25 100,75 50,100"></polygon></symbol><symbol id="SvgjsSymbol1021"><polygon points="0,18.75 37.5,0 75,18.75 37.5,37.5"></polygon></symbol><symbol id="SvgjsSymbol1022"><polygon points="0,18.75 37.5,37.5 37.5,75 0,56.25"></polygon></symbol><symbol id="SvgjsSymbol1023"><polygon points="37.5,37.5 75,18.75 75,56.25 37.5,75"></polygon></symbol><symbol id="SvgjsSymbol1024"><polygon points="0,12.5 25,0 50,12.5 25,25"></polygon></symbol><symbol id="SvgjsSymbol1025"><polygon points="0,12.5 25,25 25,50 0,37.5"></polygon></symbol><symbol id="SvgjsSymbol1026"><polygon points="25,25 50,12.5 50,37.5 25,50"></polygon></symbol><symbol id="SvgjsSymbol1027"><polygon points="0,6.25 12.5,0 25,6.25 12.5,12.5"></polygon></symbol><symbol id="SvgjsSymbol1028"><polygon points="0,6.25 12.5,12.5 12.5,25 0,18.75"></polygon></symbol><symbol id="SvgjsSymbol1029"><polygon points="12.5,12.5 25,6.25 25,18.75 12.5,25"></polygon></symbol><symbol id="SvgjsSymbol1030"><polygon points="0,12.5 25,0 50,12.5 25,25"></polygon></symbol><symbol id="SvgjsSymbol1031"><polygon points="0,12.5 25,25 25,50 0,37.5"></polygon></symbol><symbol id="SvgjsSymbol1032"><polygon points="25,25 50,12.5 50,37.5 25,50"></polygon></symbol><symbol id="SvgjsSymbol1033"><polygon points="0,6.25 12.5,0 25,6.25 12.5,12.5"></polygon></symbol><symbol id="SvgjsSymbol1034"><polygon points="0,6.25 12.5,12.5 12.5,25 0,18.75"></polygon></symbol><symbol id="SvgjsSymbol1035"><polygon points="12.5,12.5 25,6.25 25,18.75 12.5,25"></polygon></symbol></svg>