<svg id="visual" viewBox="0 0 900 600" width="900" height="600" xmlns="http://www.w3.org/2000/svg" xmlns:xlink="http://www.w3.org/1999/xlink" version="1.1"><rect x="0" y="0" width="900" height="600" fill="#1e1e1e"></rect><path d="M586 600L470 600L470 554L484 554L484 508L563 508L563 462L487 462L487 415L587 415L587 369L533 369L533 323L608 323L608 277L482 277L482 231L564 231L564 185L664 185L664 138L599 138L599 92L657 92L657 46L636 46L636 0L900 0L900 46L900 46L900 92L900 92L900 138L900 138L900 185L900 185L900 231L900 231L900 277L900 277L900 323L900 323L900 369L900 369L900 415L900 415L900 462L900 462L900 508L900 508L900 554L900 554L900 600L900 600Z" fill="#ff9051"></path><path d="M741 600L641 600L641 554L745 554L745 508L631 508L631 462L716 462L716 415L699 415L699 369L684 369L684 323L607 323L607 277L603 277L603 231L690 231L690 185L660 185L660 138L635 138L635 92L643 92L643 46L604 46L604 0L900 0L900 46L900 46L900 92L900 92L900 138L900 138L900 185L900 185L900 231L900 231L900 277L900 277L900 323L900 323L900 369L900 369L900 415L900 415L900 462L900 462L900 508L900 508L900 554L900 554L900 600L900 600Z" fill="#fd772f"></path><path d="M762 600L751 600L751 554L819 554L819 508L755 508L755 462L738 462L738 415L701 415L701 369L702 369L702 323L818 323L818 277L736 277L736 231L733 231L733 185L775 185L775 138L708 138L708 92L708 92L708 46L815 46L815 0L900 0L900 46L900 46L900 92L900 92L900 138L900 138L900 185L900 185L900 231L900 231L900 277L900 277L900 323L900 323L900 369L900 369L900 415L900 415L900 462L900 462L900 508L900 508L900 554L900 554L900 600L900 600Z" fill="#f95a00"></path></svg>