<svg id="Logo_Vektor" data-name="Logo Vektor" xmlns="http://www.w3.org/2000/svg" viewBox="0 0 1225.1 152.56"><defs><style>.cls-1{fill:#579eb0;}</style></defs><path d="M356.86,403.91a8.46,8.46,0,1,1-8.46,8.46A8.53,8.53,0,0,1,356.86,403.91Zm-6.15,32.29h13.07V510H350.71Z" transform="translate(-176.5 -389.73)"/><path d="M384.08,436.2h13.06V447s7.69-12.3,23.38-12.3c17.37,0,29.67,12.3,29.67,32.29V510H437.12V467c0-12.3-7.69-20-18.45-20-12.3,0-21.53,9.23-21.53,23.06v40H384.08Z" transform="translate(-176.5 -389.73)"/><path d="M474.17,448.5H460.34V436.2h8.45c3.85,0,6.15-2.15,6.15-7.69V411.6h12.3v24.6h16.92v12.3H487.24v39.21c0,7.68,3.85,11.53,10.3,11.53a24.48,24.48,0,0,0,9.69-2.31v12.3a26.36,26.36,0,0,1-10.76,2.31c-14.61,0-22.3-7.69-22.3-23.07Z" transform="translate(-176.5 -389.73)"/><path d="M583.8,496.93s-10,14.61-30.75,14.61a38.07,38.07,0,0,1-38.44-38.44c0-21.53,16.91-38.44,36.9-38.44,20.76,0,36.13,15.38,36.13,36.13a31.62,31.62,0,0,1-.77,6.92H528.45a24.93,24.93,0,0,0,24.6,21.53,28.68,28.68,0,0,0,22.29-10.77Zm-9.23-30.75c-2.3-10.76-10.76-19.22-23.06-19.22s-20.76,8.46-23.06,19.22Z" transform="translate(-176.5 -389.73)"/><path d="M603.17,436.2h13.07v10a29.43,29.43,0,0,1,23.83-11.53h3.08V448.5a18.8,18.8,0,0,0-5.39-.77c-12.3,0-21.52,9.23-21.52,23.06V510H603.17Z" transform="translate(-176.5 -389.73)"/><path d="M654.83,402.37H667.9V447s7.69-12.3,23.06-12.3c17.68,0,30,12.3,30,32.29V510H707.88V467c0-12.3-7.69-20-18.45-20-12.31,0-21.53,9.23-21.53,22.3V510H654.83Z" transform="translate(-176.5 -389.73)"/><path d="M732,528.45a25.39,25.39,0,0,0,8.46,1.54c6.92,0,10.92-3.85,13.84-10.76l3.84-9.23-30-73.8H742l22.29,56.89,22.3-56.89h13.83l-33,83.79c-6.15,15.38-13.07,22.3-24.6,22.3A37.57,37.57,0,0,1,732,540.75Z" transform="translate(-176.5 -389.73)"/><path d="M811.51,436.2h13.06V447s7.69-12.3,25.37-12.3c19.22,0,35.37,16.14,35.37,38.44s-16.15,38.44-35.37,38.44c-17.68,0-25.37-12.3-25.37-12.3v43H811.51Zm60.73,36.9c0-15.38-10.77-26.14-23.83-26.14s-23.84,10.76-23.84,26.14,10.77,26.14,23.84,26.14S872.24,488.47,872.24,473.1Z" transform="translate(-176.5 -389.73)"/><path d="M936.2,518.46S944.65,530,959.26,530c13.84,0,23.83-10,23.83-25.37v-7.69s-6.92,11.53-23.83,11.53c-18.45,0-33.83-15.37-33.83-36.9s15.38-36.9,33.83-36.9c16.91,0,23.83,11.53,23.83,11.53v-10h13.07v68.42c0,21.52-16.14,37.67-36.9,37.67a40.19,40.19,0,0,1-31.52-15.38Zm46.89-46.9c0-14.6-8.45-24.6-22.29-24.6-12.3,0-22.3,10-22.3,24.6s10,24.6,22.3,24.6C973.56,496.16,983.09,485.86,983.09,471.56Z" transform="translate(-176.5 -389.73)"/><path d="M1016.3,436.2h13.07v10a29.43,29.43,0,0,1,23.83-11.53h3.08V448.5a18.77,18.77,0,0,0-5.38-.77c-12.3,0-21.53,9.23-21.53,23.06V510H1016.3Z" transform="translate(-176.5 -389.73)"/><path d="M1067.5,436.2h13.07v43.05c0,12.3,7.69,20,18.45,20,12.3,0,21.53-9.23,21.53-23.07v-40h13.07V510h-13.07V499.24s-7.69,12.3-23.37,12.3c-17.38,0-29.68-12.3-29.68-32.29Z" transform="translate(-176.5 -389.73)"/><path d="M1153.76,436.2h13.06V447s7.69-12.3,25.37-12.3c19.22,0,35.37,16.14,35.37,38.44s-16.15,38.44-35.37,38.44c-17.68,0-25.37-12.3-25.37-12.3v43h-13.06Zm60.73,36.9c0-15.38-10.76-26.14-23.83-26.14s-23.84,10.76-23.84,26.14,10.77,26.14,23.84,26.14S1214.49,488.47,1214.49,473.1Z" transform="translate(-176.5 -389.73)"/><path d="M1243.39,436.2h13.07V447s7.69-12.3,25.37-12.3c19.22,0,35.36,16.14,35.36,38.44s-16.14,38.44-35.36,38.44c-17.68,0-25.37-12.3-25.37-12.3v43h-13.07Zm60.74,36.9c0-15.38-10.77-26.14-23.84-26.14s-23.83,10.76-23.83,26.14,10.76,26.14,23.83,26.14S1304.13,488.47,1304.13,473.1Z" transform="translate(-176.5 -389.73)"/><path d="M1397.76,496.93s-10,14.61-30.75,14.61a38.07,38.07,0,0,1-38.44-38.44c0-21.53,16.91-38.44,36.9-38.44,20.76,0,36.13,15.38,36.13,36.13a32,32,0,0,1-.76,6.92h-58.43a24.94,24.94,0,0,0,24.6,21.53,28.65,28.65,0,0,0,22.29-10.77Zm-9.22-30.75c-2.31-10.76-10.77-19.22-23.07-19.22s-20.75,8.46-23.06,19.22Z" transform="translate(-176.5 -389.73)"/><path class="cls-1" d="M242.94,522.6a66.44,66.44,0,1,1,66.44-66.44A66.52,66.52,0,0,1,242.94,522.6Zm0-120.25a53.82,53.82,0,1,0,53.81,53.81A53.87,53.87,0,0,0,242.94,402.35Z" transform="translate(-176.5 -389.73)"/></svg>