<svg xmlns="http://www.w3.org/2000/svg" version="1.1" xmlns:xlink="http://www.w3.org/1999/xlink" xmlns:svgjs="http://svgjs.dev/svgjs" viewBox="0 0 800 800"><defs><linearGradient x1="50%" y1="0%" x2="50%" y2="100%" id="nnneon-grad"><stop stop-color="hsl(29, 100%, 54%)" stop-opacity="1" offset="0%"></stop><stop stop-color="hsl(51, 87%, 61%)" stop-opacity="1" offset="100%"></stop></linearGradient><filter id="nnneon-filter" x="-100%" y="-100%" width="400%" height="400%" filterUnits="objectBoundingBox" primitiveUnits="userSpaceOnUse" color-interpolation-filters="sRGB">
	<feGaussianBlur stdDeviation="17 8" x="0%" y="0%" width="100%" height="100%" in="SourceGraphic" edgeMode="none" result="blur"></feGaussianBlur></filter><filter id="nnneon-filter2" x="-100%" y="-100%" width="400%" height="400%" filterUnits="objectBoundingBox" primitiveUnits="userSpaceOnUse" color-interpolation-filters="sRGB">
	<feGaussianBlur stdDeviation="10 17" x="0%" y="0%" width="100%" height="100%" in="SourceGraphic" edgeMode="none" result="blur"></feGaussianBlur></filter></defs><g stroke-width="7" stroke="url(#nnneon-grad)" fill="none"><path d="M400 212.93878173828125L562.0000103516954 306.46939493246435V493.5306213208305L400 587.0612345150137L237.9999896483045 493.5306213208305V306.46939493246435L400 212.93878173828125Z " filter="url(#nnneon-filter)"></path><path d="M412 212.93878173828125L574.0000103516954 306.46939493246435V493.5306213208305L412 587.0612345150137L249.9999896483045 493.5306213208305V306.46939493246435L412 212.93878173828125Z " filter="url(#nnneon-filter2)" opacity="0.25"></path><path d="M388 212.93878173828125L550.0000103516954 306.46939493246435V493.5306213208305L388 587.0612345150137L225.9999896483045 493.5306213208305V306.46939493246435L388 212.93878173828125Z " filter="url(#nnneon-filter2)" opacity="0.25"></path><path d="M400 212.93878173828125L562.0000103516954 306.46939493246435V493.5306213208305L400 587.0612345150137L237.9999896483045 493.5306213208305V306.46939493246435L400 212.93878173828125Z "></path></g></svg>