<svg id="visual" viewBox="0 0 900 600" width="900" height="600" xmlns="http://www.w3.org/2000/svg" xmlns:xlink="http://www.w3.org/1999/xlink" version="1.1"><g><g transform="translate(132 237)"><path d="M0 -34.7L30 -17.3L30 17.3L0 34.7L-30 17.3L-30 -17.3Z" fill="none" stroke="#ffa200" stroke-width="2"></path></g><g transform="translate(53 386)"><path d="M0 -19L16.5 -9.5L16.5 9.5L0 19L-16.5 9.5L-16.5 -9.5Z" fill="none" stroke="#ffa200" stroke-width="2"></path></g><g transform="translate(439 356)"><path d="M0 -27L23.4 -13.5L23.4 13.5L0 27L-23.4 13.5L-23.4 -13.5Z" stroke="#ffa200" fill="none" stroke-width="2"></path></g><g transform="translate(411 219)"><path d="M0 -24L20.8 -12L20.8 12L0 24L-20.8 12L-20.8 -12Z" stroke="#ffa200" fill="none" stroke-width="2"></path></g><g transform="translate(780 104)"><path d="M0 -33L28.6 -16.5L28.6 16.5L0 33L-28.6 16.5L-28.6 -16.5Z" stroke="#ffa200" fill="none" stroke-width="2"></path></g><g transform="translate(624 161)"><path d="M0 -33L28.6 -16.5L28.6 16.5L0 33L-28.6 16.5L-28.6 -16.5Z" stroke="#ffa200" fill="none" stroke-width="2"></path></g></g></svg>